<?xml version="1.0" encoding="UTF-8" standalone="no"?><!DOCTYPE svg PUBLIC "-//W3C//DTD SVG 1.1//EN" "http://www.w3.org/Graphics/SVG/1.1/DTD/svg11.dtd"><svg width="100%" height="100%" viewBox="0 0 381 127" version="1.1" xmlns="http://www.w3.org/2000/svg" xmlns:xlink="http://www.w3.org/1999/xlink" xml:space="preserve" style="fill-rule:evenodd;clip-rule:evenodd;stroke-linejoin:round;stroke-miterlimit:1.41421;"><text x="-7.149px" y="126.043px" style="font-family:'Arimo', sans-serif;font-size:87.148px;fill:#fff;">Prodaﬂow</text><g><ellipse cx="186.534" cy="3.264" rx="3.398" ry="3.264" style="fill:#fff;"/><ellipse cx="186.534" cy="11.752" rx="3.398" ry="3.264" style="fill:#fff;"/><ellipse cx="195.37" cy="11.752" rx="3.398" ry="3.264" style="fill:#fff;"/><ellipse cx="186.534" cy="20.239" rx="3.398" ry="3.264" style="fill:#fff;"/><ellipse cx="177.698" cy="11.752" rx="3.398" ry="3.264" style="fill:#fff;"/><ellipse cx="186.534" cy="33.296" rx="3.398" ry="3.264" style="fill:#fff;"/><ellipse cx="186.534" cy="41.783" rx="3.398" ry="3.264" style="fill:#fff;"/><ellipse cx="195.37" cy="45.701" rx="3.398" ry="3.264" style="fill:#fff;"/><ellipse cx="195.37" cy="37.213" rx="3.398" ry="3.264" style="fill:#fff;"/><ellipse cx="195.37" cy="28.726" rx="3.398" ry="3.264" style="fill:#fff;"/><ellipse cx="186.534" cy="50.271" rx="3.398" ry="3.264" style="fill:#fff;"/><ellipse cx="177.698" cy="41.783" rx="3.398" ry="3.264" style="fill:#fff;"/><ellipse cx="204.205" cy="19.586" rx="3.398" ry="3.264" style="fill:#fff;"/><ellipse cx="204.205" cy="28.073" rx="3.398" ry="3.264" style="fill:#fff;"/><ellipse cx="213.041" cy="28.073" rx="3.398" ry="3.264" style="fill:#fff;"/><ellipse cx="204.205" cy="36.561" rx="3.398" ry="3.264" style="fill:#fff;"/><ellipse cx="195.37" cy="20.239" rx="3.398" ry="3.264" style="fill:#fff;"/></g></svg>